<?xml version="1.0" standalone="no"?>
<!DOCTYPE svg PUBLIC "-//W3C//DTD SVG 20010904//EN"
 "http://www.w3.org/TR/2001/REC-SVG-20010904/DTD/svg10.dtd">
<svg version="1.0" xmlns="http://www.w3.org/2000/svg"
 width="609.000000pt" height="609.000000pt" viewBox="0 0 609.000000 609.000000"
 preserveAspectRatio="xMidYMid meet">
<metadata>
Created by potrace 1.14, written by Peter Selinger 2001-2017
</metadata>
<g transform="translate(0.000000,609.000000) scale(0.100000,-0.100000)"
fill="#000000" stroke="none">
<path d="M2820 5350 c-25 -4 -67 -10 -95 -14 -330 -42 -664 -168 -955 -362
-69 -46 -137 -94 -152 -106 -14 -13 -46 -39 -69 -58 -78 -63 -233 -223 -310
-320 -135 -170 -250 -363 -336 -567 -22 -50 -81 -222 -88 -253 -1 -8 -8 -33
-13 -55 -17 -62 -44 -207 -57 -300 -11 -79 -14 -414 -5 -480 4 -33 11 -82 14
-110 5 -43 16 -111 30 -180 18 -86 76 -276 105 -340 10 -22 22 -51 26 -65 16
-51 136 -275 199 -369 120 -180 303 -386 441 -496 27 -22 59 -48 70 -59 46
-42 268 -181 376 -236 237 -119 483 -194 754 -231 101 -14 430 -17 545 -6 111
12 300 52 425 90 712 220 1268 761 1512 1472 46 135 84 292 98 411 4 33 10 68
12 79 11 48 9 408 -3 508 -32 279 -110 538 -234 786 -55 110 -191 324 -242
383 -13 14 -39 46 -58 70 -56 70 -219 229 -300 293 -41 33 -77 62 -80 66 -3 3
-54 38 -115 78 -231 153 -573 294 -817 336 -16 3 -40 7 -55 10 -123 23 -170
27 -378 29 -110 2 -220 0 -245 -4z"/>
</g>
</svg>
